<svg xmlns="http://www.w3.org/2000/svg" viewBox="0 0 294.983 307.534"><defs><clipPath id="a" clipPathUnits="userSpaceOnUse"><path d="M-720.481-391.065h841.89v595.276h-841.89Z"/></clipPath><clipPath id="b" clipPathUnits="userSpaceOnUse"><path d="M-656.56-334.764h841.89v595.276h-841.89Z"/></clipPath><clipPath id="c" clipPathUnits="userSpaceOnUse"><path d="M-725.04-337.033h841.89v595.276h-841.89Z"/></clipPath><clipPath id="d" clipPathUnits="userSpaceOnUse"><path d="M-602.763-300.286h841.89V294.99h-841.89Z"/></clipPath><clipPath id="e" clipPathUnits="userSpaceOnUse"><path d="M-543.137-315.56h841.89v595.276h-841.89Z"/></clipPath><clipPath id="f" clipPathUnits="userSpaceOnUse"><path d="M-588.44-282.31h841.89v595.275h-841.89Z"/></clipPath><clipPath id="g" clipPathUnits="userSpaceOnUse"><path d="M-541.764-286.64h841.89v595.275h-841.89Z"/></clipPath><clipPath id="h" clipPathUnits="userSpaceOnUse"><path d="M-587.724-330.783h841.89v595.276h-841.89Z"/></clipPath><clipPath id="i" clipPathUnits="userSpaceOnUse"><path d="M-590.614-307.982h841.89v595.276h-841.89Z"/></clipPath><clipPath id="j" clipPathUnits="userSpaceOnUse"><path d="M-627.29-293.388H214.6v595.276h-841.89Z"/></clipPath><clipPath id="k" clipPathUnits="userSpaceOnUse"><path d="M-570.848-342.188h841.89v595.276h-841.89Z"/></clipPath><clipPath id="l" clipPathUnits="userSpaceOnUse"><path d="M-564.544-322.751h841.89v595.276h-841.89Z"/></clipPath><clipPath id="m" clipPathUnits="userSpaceOnUse"><path d="M-532.367-293.253h841.89v595.276h-841.89Z"/></clipPath><clipPath id="n" clipPathUnits="userSpaceOnUse"><path d="M-651.405-425.628h841.89v595.276h-841.89Z"/></clipPath></defs><path d="M0 0c0 45.389-28.322 84.285-68.222 99.95C-25.913 86.208 4.76 46.413 4.76-.417c0-51.459-37.034-94.424-85.848-103.66C-34.55-92.339 0-50.131 0 0m-208.07-.417c0-45.389 28.322-84.285 68.22-99.95C-182.157-86.625-212.83-46.83-212.83 0c0 51.458 37.033 94.422 85.846 103.659C-173.521 91.921-208.07 49.713-208.07-.417m1.823 0c0 58.174 47.329 105.503 105.504 105.503 1.15 0 2.296-.025 3.438-.062C-43.813 99.959-1.824 54.794-1.824 0c0-58.174-47.328-105.503-105.503-105.503-1.154 0-2.302.025-3.447.062-53.488 5.069-95.473 50.233-95.473 105.024M-97.18 106.844c-3.341.314-6.724.483-10.147.483-59.179 0-107.326-48.147-107.326-107.327 0-57.989 46.231-105.378 103.769-107.261 3.34-.315 6.721-.483 10.141-.483 59.18 0 107.327 48.147 107.327 107.327 0 57.987-46.227 105.373-103.764 107.261" clip-path="url(#a)" style="fill:currentColor;fill-opacity:1;fill-rule:nonzero;stroke:none" transform="matrix(1.33333 0 0 -1.33333 286.204 143.103)"/><path d="M0 0c-13.357-1.806-26.264-4.405-38.459-7.75v.003c-23.417-6.42-44.207-15.597-60.524-27.216C-80.239-20.075-54.917-8.984-25.938-2.045v-.002C-17.834-.106-9.443 1.51-.832 2.793l-.001.002q5.835.87 11.796 1.535.204-1.591.293-3.013A328 328 0 0 1 .001-.003Z" clip-path="url(#b)" style="fill:#cf8d1f;fill-opacity:1;fill-rule:evenodd;stroke:none" transform="matrix(1.33333 0 0 -1.33333 200.976 218.17)"/><path d="M0 0c-7.095.464-21.15.712-28.2.745a24 24 0 0 1-.649 3.428c6.415.057 19.85-.053 26.349-.335A33 33 0 0 1 0 0" clip-path="url(#c)" style="fill:#cf8d1f;fill-opacity:1;fill-rule:evenodd;stroke:#fff;stroke-width:.865;stroke-linecap:butt;stroke-linejoin:miter;stroke-miterlimit:10;stroke-dasharray:none;stroke-opacity:1" transform="matrix(1.33333 0 0 -1.33333 292.282 215.145)"/><path d="M0 0c-.356 3.112 1.056 5.669 2.796 7.187 2.866 2.502 6.189 1.761 8.711-.434 2.653-2.31 2.824-6.097 1.185-8.929C9.634-7.46.644-5.604 0 0" clip-path="url(#d)" style="fill:#cf8d1f;fill-opacity:1;fill-rule:evenodd;stroke:none" transform="matrix(1.33333 0 0 -1.33333 129.246 264.142)"/><path d="M0 0c-.357 3.112 1.056 5.669 2.796 7.187 2.864 2.502 6.188 1.761 8.71-.434 2.653-2.31 2.824-6.097 1.185-8.929C9.634-7.461.642-5.604 0 0" clip-path="url(#e)" style="fill:#cf8d1f;fill-opacity:1;fill-rule:evenodd;stroke:#fff;stroke-width:.865;stroke-linecap:butt;stroke-linejoin:miter;stroke-miterlimit:10;stroke-dasharray:none;stroke-opacity:1" transform="matrix(1.33333 0 0 -1.33333 49.744 243.776)"/><path d="M0 0a2.71 2.71 0 0 0 .915 2.353c.939.819 2.026.576 2.852-.142.868-.757.924-1.996.388-2.923C3.154-2.442.21-1.834 0 0" clip-path="url(#f)" style="fill:#cf8d1f;fill-opacity:1;fill-rule:evenodd;stroke:none" transform="matrix(1.33333 0 0 -1.33333 110.148 288.109)"/><path d="M0 0c2.943 1.886 6.2 1.727 8.576.729 3.916-1.643 4.805-5.337 3.844-8.943-1.012-3.794-4.723-5.826-8.366-5.575C-2.744-13.32-5.3-3.396 0 0" clip-path="url(#g)" style="fill:#cf8d1f;fill-opacity:1;fill-rule:evenodd;stroke:none" transform="matrix(1.33333 0 0 -1.33333 47.914 282.335)"/><path d="M0 0c-.64 5.569 1.891 10.147 5.004 12.864 5.129 4.477 11.078 3.15 15.59-.778 4.749-4.135 5.053-10.912 2.122-15.98C17.243-13.353 1.149-10.03 0 0" clip-path="url(#h)" style="fill:#cf8d1f;fill-opacity:1;fill-rule:evenodd;stroke:none" transform="matrix(1.33333 0 0 -1.33333 109.194 223.479)"/><path d="M0 0c-4.513 3.928-10.462 5.256-15.592.778-3.112-2.717-5.641-7.294-5.003-12.864a9.4 9.4 0 0 1 .663-2.549c-2.303-.051-4.632-.897-6.814-2.801-3.113-2.717-5.643-7.294-5.003-12.864 1.149-10.03 17.242-13.353 22.716-3.894 2.23 3.856 2.581 8.698.532 12.616 4.151-.086 8.323 1.625 10.623 5.598C5.054-10.912 4.749-4.134 0 0" clip-path="url(#i)" style="fill:#cf8d1f;fill-opacity:1;fill-rule:evenodd;stroke:#fff;stroke-width:.865;stroke-linecap:butt;stroke-linejoin:miter;stroke-miterlimit:10;stroke-dasharray:none;stroke-opacity:1" transform="matrix(1.33333 0 0 -1.33333 113.048 253.88)"/><path d="M0 0c2.943 1.886 6.201 1.726 8.576.729 3.916-1.643 4.805-5.338 3.844-8.943-1.012-3.794-4.723-5.826-8.366-5.575C-2.744-13.32-5.3-3.397 0 0" clip-path="url(#j)" style="fill:#cf8d1f;fill-opacity:1;fill-rule:evenodd;stroke:#fff;stroke-width:.865;stroke-linecap:butt;stroke-linejoin:miter;stroke-miterlimit:10;stroke-dasharray:none;stroke-opacity:1" transform="matrix(1.33333 0 0 -1.33333 161.948 273.339)"/><path d="M0 0c2.943 1.886 6.201 1.727 8.576.729 3.915-1.643 4.806-5.338 3.844-8.943-1.012-3.794-4.723-5.825-8.365-5.574C-2.743-13.32-5.301-3.397 0 0" clip-path="url(#k)" style="fill:#cf8d1f;fill-opacity:1;fill-rule:evenodd;stroke:none" transform="matrix(1.33333 0 0 -1.33333 86.692 208.273)"/><path d="M0 0a4.4 4.4 0 0 0 1.486 3.821c1.524 1.329 3.29.935 4.631-.231 1.41-1.228 1.501-3.241.63-4.747C5.121-3.966.341-2.979 0 0" clip-path="url(#l)" style="fill:#cf8d1f;fill-opacity:1;fill-rule:evenodd;stroke:none" transform="matrix(1.33333 0 0 -1.33333 78.287 234.188)"/><path d="M0 0a4.4 4.4 0 0 0 1.486 3.821c1.523 1.329 3.289.935 4.631-.231 1.41-1.228 1.501-3.24.63-4.747C5.121-3.966.341-2.979 0 0" clip-path="url(#m)" style="fill:#cf8d1f;fill-opacity:1;fill-rule:evenodd;stroke:none" transform="matrix(1.33333 0 0 -1.33333 35.385 273.519)"/><path d="M0 0q.296 1.645.561 3.239C3.707 22.337-10.266 33.793-29.1 20.575c-9.185-6.446-16.063-23.262-17.243-34.278.532 18.587 4.165 30.447 3.758 46.239-.6 23.281-23.582 20.036-33.546-1.254-3.974-8.493-9.445-21.877-10.751-30.868-1.063 11.122-.158 16.609.194 29.64.208 7.71-20.717.546-21.239-7.284-1.928-28.968 1.421-68.827 15.788-86.89 4.647-5.844 15.043-8.249 11.915 2.708-2.076 7.27-3.546 19.854-4.232 27.899-1.452 17.034 2.578 43.59 11.483 58.578 6.183 10.406 10.959 7.522 9.49-2.952-1.96-13.997-4.385-50.699 1.011-65.849 4.72-13.253 19.69-21.62 17.57-7.278-2.162 14.636 2.112 53.196 19.313 64.86 6.069 4.116 5.822-1.456 4.744-7.772-5.083-29.774-13.8-66.209 1.321-96.922 10.016-20.343 28.582-23.983 44.017-18.428 24.579 8.845 23.424 42.436-7.517 41.563-3.709-.104-4.286-1.035-2.953-4.025 14.065-31.549-3.859-45.721-16.259-23.627l-2.157 4.353a65 65 0 0 0-1.861 4.77c-8.493 24.556-.275 53.113 4.23 75.724z" clip-path="url(#n)" style="fill:currentColor;fill-opacity:1;fill-rule:evenodd;stroke:none" transform="matrix(1.33333 0 0 -1.33333 194.103 97.018)"/></svg>